<svg width="71" height="85" viewBox="0 0 71 85" fill="none" xmlns="http://www.w3.org/2000/svg">
<path d="M25.206 10.0468L25.2192 10.0906L25.2641 10.0813L35.2873 8.00757L45.6564 9.73576L45.702 9.74335L45.7132 9.69857L47.4388 2.79605L50.8352 0.0789397L54.9514 8.99752L53.5739 13.1301L53.5596 13.1731L53.6011 13.1916L56.6893 14.5641L58.0691 24.2232L58.0704 24.2319L58.0746 24.2398L70.5178 47.3979L58.0832 79.8658L44.9688 80.9011L44.9687 80.8993L44.9559 80.9039L35.286 84.3574L25.2702 80.9037L25.2707 80.9025L25.2593 80.9012L12.49 79.5208L0.0548595 46.3604L12.1519 24.2401L12.1558 24.2329L12.1573 24.2249L13.8823 14.5646L16.9716 13.1916L17.0121 13.1736L16.9991 13.1312L15.6213 8.65349L20.0777 0.0835962L23.134 3.13994L25.206 10.0468Z" fill="white" stroke="white" stroke-width="0.1"/>
<path d="M33.9282 23.8204L30.5118 19.0374L34.9424 15.6292L40.0588 19.0401L36.6443 23.8204H33.9282Z" fill="white" stroke="#6B4E2E" stroke-width="0.1"/>
<path d="M24.6062 30.8123L24.6062 30.8123L24.6067 30.8113L30.4507 19.1235L33.8424 23.872L25.9076 36.6367L18.15 43.0452L24.6062 30.8123Z" fill="white" stroke="#6B4E2E" stroke-width="0.1"/>
<path d="M44.6649 36.6367L36.7301 23.872L40.1225 19.1226L52.4278 43.0494L44.6649 36.6367Z" fill="white" stroke="#6B4E2E" stroke-width="0.1"/>
<path d="M44.5843 36.6967L44.5887 36.7037L44.5951 36.709L52.1839 42.918L50.8046 52.228L48.7296 60.5283L48.7281 60.528V60.5405V74.6925L35.6314 80.8962L21.4985 74.6915V61.2323H21.4994L21.4976 61.2229L19.7682 52.2305L19.7681 52.2294L18.3886 42.918L25.9774 36.709L25.9838 36.7037L25.9882 36.6967L33.9303 23.9204H36.6422L44.5843 36.6967Z" fill="white" stroke="#6B4E2E" stroke-width="0.1"/>
<path d="M17.5931 22.4542L14.5865 23.7905L14.9254 19.7233L14.9299 19.6691H14.8756H14.2427L14.5652 17.7344L17.5931 20.0895V22.4542Z" fill="#6B4E2E" stroke="#F7F7F7" stroke-width="0.1"/>
<path d="M52.9794 20.0895L56.0074 17.7344L56.3299 19.6691H55.697H55.6426L55.6472 19.7233L55.9861 23.7177L52.9794 22.4534V20.0895Z" fill="#6B4E2E" stroke="#6B4E2E" stroke-width="0.1"/>
<path d="M35.2862 75.3659L29.935 75.0686L34.9433 74.774L34.9904 74.7713V74.7241V64.6917V64.6744L34.9796 64.6607L29.7904 58.0878L29.7919 58.0866L29.7807 58.0784L20.8012 51.5165L19.0823 43.9529L24.918 38.8038L35.2677 42.9437L35.2863 42.9511L35.3049 42.9437L45.6546 38.8038L51.4893 43.952L49.4262 51.5163L40.7912 58.079L40.7902 58.0777L40.7822 58.0878L35.593 64.6607L35.5822 64.6744V64.6917V74.7241V74.7711L35.6291 74.774L40.3416 75.0685L35.2862 75.3659Z" fill="white" stroke="#5C442A" stroke-width="0.1"/>
<path d="M43.243 43.2427L46.3565 41.8589L50.1619 44.9724L49.8159 47.394L45.6646 47.74L44.6268 45.6643L42.5511 46.7021L43.243 43.2427Z" fill="white"/>
<path d="M20.4107 44.9724L23.8701 41.8589L26.9836 43.2427L28.3674 46.7021L26.6377 45.6643L24.562 47.74L20.7566 47.394L20.4107 44.9724Z" fill="white"/>
</svg>
